<svg xmlns="http://www.w3.org/2000/svg" viewBox="0 0 1600 900" width="1600" height="900">
  <defs>
    <linearGradient id="bg" x1="0" y1="0" x2="1" y2="1">
      <stop offset="0" stop-color="#0b1628"/>
      <stop offset=".55" stop-color="#11223b"/>
      <stop offset="1" stop-color="#152b48"/>
    </linearGradient>
    <radialGradient id="vig" cx=".5" cy=".45" r=".75">
      <stop offset=".6" stop-color="#050b16" stop-opacity="0"/>
      <stop offset="1" stop-color="#050b16" stop-opacity=".55"/>
    </radialGradient>
    <pattern id="dots" width="32" height="32" patternUnits="userSpaceOnUse">
      <circle cx="16" cy="16" r="1.2" fill="#1d3150"/>
    </pattern>
    <linearGradient id="metal" x1="0" y1="0" x2="1" y2="0">
      <stop offset="0" stop-color="#6a7fa3"/>
      <stop offset=".06" stop-color="#2d3f5d"/>
      <stop offset=".5" stop-color="#1b2940"/>
      <stop offset=".94" stop-color="#2d3f5d"/>
      <stop offset="1" stop-color="#7d93b8"/>
    </linearGradient>
    <linearGradient id="btn" x1="0" y1="0" x2="1" y2="0">
      <stop offset="0" stop-color="#23344f"/>
      <stop offset=".5" stop-color="#5c7194"/>
      <stop offset="1" stop-color="#23344f"/>
    </linearGradient>
    <linearGradient id="screen" x1="0" y1="0" x2="0" y2="1">
      <stop offset="0" stop-color="#0c1729"/>
      <stop offset="1" stop-color="#0a1322"/>
    </linearGradient>
    <linearGradient id="glass" x1="0" y1="0" x2="1" y2="1">
      <stop offset="0" stop-color="#ffffff" stop-opacity=".09"/>
      <stop offset=".5" stop-color="#ffffff" stop-opacity=".02"/>
      <stop offset="1" stop-color="#ffffff" stop-opacity="0"/>
    </linearGradient>
    <radialGradient id="sun" cx=".38" cy=".34" r=".75">
      <stop offset="0" stop-color="#ffc07a"/>
      <stop offset=".45" stop-color="#f58a38"/>
      <stop offset="1" stop-color="#d7621c"/>
    </radialGradient>
    <linearGradient id="penBody" x1="0" y1="0" x2="1" y2="0">
      <stop offset="0" stop-color="#c3cfe0"/>
      <stop offset=".35" stop-color="#f6f9fd"/>
      <stop offset="1" stop-color="#a9b8cd"/>
    </linearGradient>
    <linearGradient id="nib" x1="0" y1="0" x2="1" y2="0">
      <stop offset="0" stop-color="#c55c18"/>
      <stop offset=".4" stop-color="#ffc58a"/>
      <stop offset="1" stop-color="#e0702a"/>
    </linearGradient>
    <linearGradient id="rack" x1="0" y1="0" x2="0" y2="1">
      <stop offset="0" stop-color="#1b2c48"/>
      <stop offset="1" stop-color="#132238"/>
    </linearGradient>
    <linearGradient id="unit" x1="0" y1="0" x2="0" y2="1">
      <stop offset="0" stop-color="#253a5f"/>
      <stop offset="1" stop-color="#1b2c49"/>
    </linearGradient>
    <linearGradient id="win" x1="0" y1="0" x2="0" y2="1">
      <stop offset="0" stop-color="#172740"/>
      <stop offset="1" stop-color="#132137"/>
    </linearGradient>
    <linearGradient id="card" x1="0" y1="0" x2="1" y2="1">
      <stop offset="0" stop-color="#20355a"/>
      <stop offset="1" stop-color="#1a2b47"/>
    </linearGradient>
    <linearGradient id="fbBlue" x1="0" y1="0" x2="1" y2="0">
      <stop offset="0" stop-color="#3b6fd8" stop-opacity=".6"/>
      <stop offset="1" stop-color="#3b6fd8" stop-opacity="0"/>
    </linearGradient>
    <linearGradient id="fbTeal" x1="0" y1="0" x2="1" y2="0">
      <stop offset="0" stop-color="#2a9d8f" stop-opacity=".6"/>
      <stop offset="1" stop-color="#2a9d8f" stop-opacity="0"/>
    </linearGradient>
    <linearGradient id="packet" x1="0" y1="0" x2="1" y2="1">
      <stop offset="0" stop-color="#ffc58a"/>
      <stop offset="1" stop-color="#f07c2a"/>
    </linearGradient>
    <filter id="blur" x="-50%" y="-50%" width="200%" height="200%">
      <feGaussianBlur stdDeviation="14"/>
    </filter>
    <filter id="blurS" x="-50%" y="-50%" width="200%" height="200%">
      <feGaussianBlur stdDeviation="5"/>
    </filter>
    <clipPath id="scr"><rect x="266" y="111" width="348" height="678" rx="42"/></clipPath>
    <clipPath id="th1"><rect x="1144" y="306" width="152" height="86" rx="6"/></clipPath>
  </defs>

  <rect width="1600" height="900" fill="url(#bg)"/>
  <rect width="1600" height="900" fill="url(#dots)" opacity=".7"/>
  <rect width="1600" height="900" fill="url(#vig)"/>

  <!-- floor shadows -->
  <ellipse cx="444" cy="822" rx="196" ry="18" fill="#02060d" opacity=".7" filter="url(#blur)"/>
  <ellipse cx="892" cy="634" rx="118" ry="12" fill="#02060d" opacity=".7" filter="url(#blur)"/>
  <rect x="1112" y="190" width="390" height="560" rx="18" fill="#02060d" opacity=".45" filter="url(#blur)"/>

  <!-- phone body -->
  <rect x="246" y="229" width="7" height="34" rx="3" fill="url(#btn)"/>
  <rect x="246" y="276" width="7" height="58" rx="3" fill="url(#btn)"/>
  <rect x="246" y="346" width="7" height="58" rx="3" fill="url(#btn)"/>
  <rect x="627" y="300" width="7" height="92" rx="3" fill="url(#btn)"/>
  <rect x="250" y="95" width="380" height="710" rx="60" fill="url(#metal)"/>
  <rect x="252" y="97" width="376" height="706" rx="58" fill="none" stroke="#9fb3d3" stroke-width="1.5" opacity=".45"/>
  <rect x="258" y="103" width="364" height="694" rx="52" fill="#04070d"/>
  <rect x="266" y="111" width="348" height="678" rx="42" fill="url(#screen)"/>

  <g clip-path="url(#scr)">
    <!-- canvas grid -->
    <path d="M266 140H614M266 169H614M266 198H614M266 227H614M266 256H614M266 285H614M266 314H614M266 343H614M266 372H614M266 401H614M266 430H614M266 459H614M266 488H614M266 517H614M266 546H614M266 575H614M266 604H614M266 633H614M266 662H614M266 691H614M266 720H614M266 749H614M266 778H614" stroke="#152640" stroke-width="1.2"/>
    <path d="M295 111V789M324 111V789M353 111V789M382 111V789M411 111V789M440 111V789M469 111V789M498 111V789M527 111V789M556 111V789M585 111V789" stroke="#152640" stroke-width="1.2"/>
    <path d="M266 256H614M266 488H614M353 111V789M527 111V789" stroke="#1c3252" stroke-width="1.6"/>

    <!-- status bar -->
    <path d="M514 138a11 11 0 0 1 16 0M517 141.5a6.5 6.5 0 0 1 10 0" fill="none" stroke="#c9d6e8" stroke-width="2" stroke-linecap="round"/>
    <circle cx="522" cy="144.5" r="1.8" fill="#c9d6e8"/>
    <rect x="538" y="139" width="3.5" height="6" rx="1" fill="#c9d6e8"/>
    <rect x="544" y="136" width="3.5" height="9" rx="1" fill="#c9d6e8"/>
    <rect x="550" y="133" width="3.5" height="12" rx="1" fill="#c9d6e8"/>
    <rect x="556" y="130" width="3.5" height="15" rx="1" fill="#5b7090"/>
    <rect x="566" y="131" width="25" height="13" rx="3.5" fill="none" stroke="#c9d6e8" stroke-width="1.6"/>
    <rect x="568.5" y="133.5" width="15" height="8" rx="1.8" fill="#c9d6e8"/>
    <rect x="592.5" y="135" width="2.2" height="5" rx="1" fill="#c9d6e8"/>

    <!-- editor toolbar -->
    <rect x="282" y="172" width="316" height="46" rx="14" fill="#13223a" stroke="#22365a" stroke-width="1.5"/>
    <path d="M304 184L304 206L310 200L315 210L319 208L314 198L322 198Z" fill="#c9d6e8"/>
    <rect x="336" y="180" width="32" height="30" rx="8" fill="#f07c2a"/>
    <path d="M352 205L346 193L352 184L358 193Z" fill="#fff4ea"/>
    <path d="M352 205V194" stroke="#c55c18" stroke-width="1.6"/>
    <circle cx="352" cy="193" r="1.8" fill="#c55c18"/>
    <rect x="384" y="186" width="20" height="18" rx="3" fill="none" stroke="#c9d6e8" stroke-width="2"/>
    <circle cx="430" cy="195" r="10" fill="none" stroke="#c9d6e8" stroke-width="2"/>
    <path d="M456 205C462 184 470 184 476 195S488 206 494 186" fill="none" stroke="#c9d6e8" stroke-width="2" stroke-linecap="round"/>
    <path d="M522 188H546M522 195H546M522 202H546" stroke="#8a9bb4" stroke-linecap="round"/>
    <path d="M522 188H546" stroke="#8a9bb4" stroke-width="1.5" stroke-linecap="round"/>
    <path d="M522 195H546" stroke="#8a9bb4" stroke-width="3" stroke-linecap="round"/>
    <path d="M522 202H546" stroke="#8a9bb4" stroke-width="5" stroke-linecap="round"/>
    <circle cx="574" cy="195" r="11" fill="#f07c2a" stroke="#fff4ea" stroke-width="2.5"/>

    <!-- selected object: sun -->
    <circle cx="455" cy="360" r="92" fill="url(#sun)"/>
    <circle cx="455" cy="360" r="74" fill="none" stroke="#ffd2a3" stroke-width="2" opacity=".35"/>
    <path d="M395 318A74 74 0 0 1 452 286" fill="none" stroke="#fff1e2" stroke-width="5" stroke-linecap="round" opacity=".45"/>
    <rect x="351" y="256" width="208" height="208" fill="none" stroke="#7fa6dd" stroke-width="1.6" stroke-dasharray="6 5"/>
    <path d="M455 256V230" stroke="#7fa6dd" stroke-width="1.6"/>
    <circle cx="455" cy="224" r="6" fill="#0a1322" stroke="#7fa6dd" stroke-width="2"/>
    <rect x="346" y="251" width="10" height="10" fill="#f6f9fd" stroke="#3b6fd8" stroke-width="1.5"/>
    <rect x="450" y="251" width="10" height="10" fill="#f6f9fd" stroke="#3b6fd8" stroke-width="1.5"/>
    <rect x="554" y="251" width="10" height="10" fill="#f6f9fd" stroke="#3b6fd8" stroke-width="1.5"/>
    <rect x="346" y="355" width="10" height="10" fill="#f6f9fd" stroke="#3b6fd8" stroke-width="1.5"/>
    <rect x="554" y="355" width="10" height="10" fill="#f6f9fd" stroke="#3b6fd8" stroke-width="1.5"/>
    <rect x="346" y="459" width="10" height="10" fill="#f6f9fd" stroke="#3b6fd8" stroke-width="1.5"/>
    <rect x="450" y="459" width="10" height="10" fill="#f6f9fd" stroke="#3b6fd8" stroke-width="1.5"/>
    <rect x="554" y="459" width="10" height="10" fill="#f6f9fd" stroke="#3b6fd8" stroke-width="1.5"/>

    <!-- wave being written -->
    <path d="M296 560C340 480 400 480 440 560" fill="none" stroke="#d7621c" stroke-width="16" stroke-linecap="round"/>
    <path d="M296 560C340 480 400 480 440 560" fill="none" stroke="#f07c2a" stroke-width="12" stroke-linecap="round"/>
    <path d="M300 553C342 484 398 484 434 548" fill="none" stroke="#ffc58a" stroke-width="3" stroke-linecap="round" opacity=".6"/>
    <path d="M440 560C480 640 540 640 584 560" fill="none" stroke="#5b7090" stroke-width="4" stroke-dasharray="4 12" stroke-linecap="round"/>
    <path d="M400 480L440 560L480 640" fill="none" stroke="#c9d6e8" stroke-width="2" opacity=".75"/>
    <path d="M540 640L584 560" fill="none" stroke="#5b7090" stroke-width="1.6" stroke-dasharray="3 4"/>
    <circle cx="400" cy="480" r="7" fill="#0a1322" stroke="#c9d6e8" stroke-width="2.5"/>
    <circle cx="480" cy="640" r="7" fill="#0a1322" stroke="#c9d6e8" stroke-width="2.5"/>
    <circle cx="540" cy="640" r="5.5" fill="#0a1322" stroke="#5b7090" stroke-width="2"/>
    <rect x="287" y="551" width="18" height="18" fill="#0a1322" stroke="#c9d6e8" stroke-width="2.5"/>
    <rect x="575" y="551" width="18" height="18" fill="#0a1322" stroke="#5b7090" stroke-width="2.5"/>
    <rect x="429" y="549" width="22" height="22" fill="#f07c2a" stroke="#fff4ea" stroke-width="3"/>

    <!-- pen shadow -->
    <g transform="translate(466 574) rotate(35)">
      <ellipse cx="0" cy="-92" rx="17" ry="96" fill="#000" opacity=".4" filter="url(#blurS)"/>
    </g>
    <!-- pen -->
    <g transform="translate(446 552) rotate(35)">
      <path d="M0 0L-15 -42H15Z" fill="url(#nib)"/>
      <path d="M0 -1V-28" stroke="#7a3a0c" stroke-width="1.8"/>
      <circle cx="0" cy="-30" r="3" fill="#7a3a0c"/>
      <rect x="-16" y="-53" width="32" height="11" rx="2" fill="#9fb0c8"/>
      <rect x="-15" y="-94" width="30" height="41" rx="3" fill="#2b3f5e"/>
      <path d="M-15 -60H15M-15 -67H15M-15 -74H15M-15 -81H15M-15 -88H15" stroke="#3f5680" stroke-width="2"/>
      <rect x="-14" y="-174" width="28" height="80" fill="url(#penBody)"/>
      <path d="M-7 -170V-100" stroke="#ffffff" stroke-width="3" stroke-linecap="round" opacity=".7"/>
      <rect x="-15" y="-194" width="30" height="22" rx="5" fill="#9fb0c8"/>
      <rect x="9" y="-190" width="6" height="62" rx="3" fill="#c9d6e8"/>
      <circle cx="12" cy="-132" r="3" fill="#c9d6e8"/>
    </g>

    <!-- layers panel -->
    <rect x="282" y="680" width="316" height="82" rx="14" fill="#13223a" stroke="#22365a" stroke-width="1.5"/>
    <rect x="288" y="688" width="304" height="22" rx="6" fill="#1c3252"/>
    <rect x="296" y="691" width="16" height="16" rx="3" fill="#0a1322"/>
    <circle cx="304" cy="699" r="5" fill="#f07c2a"/>
    <rect x="322" y="696" width="120" height="6" rx="3" fill="#c9d6e8"/>
    <ellipse cx="578" cy="699" rx="7" ry="4.5" fill="none" stroke="#c9d6e8" stroke-width="1.6"/>
    <circle cx="578" cy="699" r="2" fill="#c9d6e8"/>
    <rect x="296" y="714" width="16" height="16" rx="3" fill="#0a1322"/>
    <path d="M298 725C301 718 304 718 306 722S310 726 311 720" fill="none" stroke="#f07c2a" stroke-width="2" stroke-linecap="round"/>
    <rect x="322" y="719" width="92" height="6" rx="3" fill="#8a9bb4"/>
    <ellipse cx="578" cy="722" rx="7" ry="4.5" fill="none" stroke="#8a9bb4" stroke-width="1.6"/>
    <circle cx="578" cy="722" r="2" fill="#8a9bb4"/>
    <rect x="296" y="737" width="16" height="16" rx="3" fill="#0a1322"/>
    <path d="M300 737V753M304 737V753M308 737V753M296 741H312M296 745H312M296 749H312" stroke="#1c3252" stroke-width="1"/>
    <rect x="322" y="742" width="104" height="6" rx="3" fill="#8a9bb4"/>
    <ellipse cx="578" cy="745" rx="7" ry="4.5" fill="none" stroke="#8a9bb4" stroke-width="1.6"/>
    <circle cx="578" cy="745" r="2" fill="#8a9bb4"/>

    <!-- glass reflection -->
    <path d="M266 111H500L330 789H266Z" fill="url(#glass)"/>
  </g>
  <rect x="385" y="772" width="110" height="5" rx="2.5" fill="#c9d6e8" opacity=".6"/>

  <!-- dynamic island and camera -->
  <rect x="395" y="128" width="90" height="26" rx="13" fill="#02050b"/>
  <circle cx="472" cy="141" r="6" fill="#0c1626" stroke="#1f2f48" stroke-width="1.5"/>
  <circle cx="470.5" cy="139.5" r="1.7" fill="#6f8fbf" opacity=".85"/>

  <!-- route 1: phone to server -->
  <path d="M646 450C710 450 730 420 786 420" fill="none" stroke="#18293f" stroke-width="12" stroke-linecap="round"/>
  <path d="M646 450C710 450 730 420 786 420" fill="none" stroke="#f07c2a" stroke-width="6" stroke-dasharray="1 16" stroke-linecap="round"/>
  <rect x="693" y="435" width="15" height="15" rx="3" fill="url(#packet)" transform="rotate(-12 700 442)"/>
  <rect x="745" y="420" width="10" height="10" rx="2.5" fill="url(#packet)" opacity=".7" transform="rotate(-18 750 425)"/>

  <!-- server rack -->
  <g>
    <path d="M790 291L808 275H988L970 291Z" fill="#2c4368"/>
    <path d="M970 291L988 275V599L970 615Z" fill="#0f1b2f"/>
    <path d="M976 300L982 295V580L976 586Z" fill="#16263f"/>
    <rect x="790" y="291" width="180" height="324" rx="6" fill="url(#rack)" stroke="#2f4566" stroke-width="2"/>
    <rect x="791" y="292" width="178" height="16" rx="5" fill="#22365a"/>
    <circle cx="956" cy="300" r="3.2" fill="#f07c2a"/>
    <rect x="802" y="297" width="40" height="5" rx="2.5" fill="#3a5073"/>

    <rect x="802" y="317" width="156" height="62" rx="5" fill="url(#unit)" stroke="#33496d" stroke-width="1.5"/>
    <rect x="802" y="317" width="9" height="62" rx="3" fill="#2a3f62"/>
    <rect x="949" y="317" width="9" height="62" rx="3" fill="#2a3f62"/>
    <circle cx="806.5" cy="327" r="2" fill="#0b1626"/><circle cx="806.5" cy="369" r="2" fill="#0b1626"/><circle cx="953.5" cy="327" r="2" fill="#0b1626"/><circle cx="953.5" cy="369" r="2" fill="#0b1626"/>
    <rect x="818" y="331" width="3.5" height="34" rx="1.7" fill="#0b1626"/><rect x="826" y="331" width="3.5" height="34" rx="1.7" fill="#0b1626"/><rect x="834" y="331" width="3.5" height="34" rx="1.7" fill="#0b1626"/><rect x="842" y="331" width="3.5" height="34" rx="1.7" fill="#0b1626"/><rect x="850" y="331" width="3.5" height="34" rx="1.7" fill="#0b1626"/><rect x="858" y="331" width="3.5" height="34" rx="1.7" fill="#0b1626"/>
    <rect x="872" y="329" width="30" height="17" rx="2" fill="#0b1626" stroke="#3a5073" stroke-width="1.2"/>
    <rect x="872" y="350" width="30" height="17" rx="2" fill="#0b1626" stroke="#3a5073" stroke-width="1.2"/>
    <rect x="876" y="336" width="15" height="3" rx="1.5" fill="#3a5073"/><rect x="876" y="357" width="15" height="3" rx="1.5" fill="#3a5073"/>
    <circle cx="897" cy="337.5" r="2" fill="#f07c2a"/><circle cx="897" cy="358.5" r="2" fill="#ffa25c"/>
    <circle cx="918" cy="337" r="4.5" fill="#f07c2a"/><circle cx="918" cy="359" r="4.5" fill="#5b7090"/>
    <rect x="930" y="331" width="12" height="5" rx="1.5" fill="#f07c2a"/><rect x="930" y="340" width="12" height="5" rx="1.5" fill="#f07c2a"/><rect x="930" y="349" width="12" height="5" rx="1.5" fill="#f07c2a"/><rect x="930" y="358" width="12" height="5" rx="1.5" fill="#33496d"/>

    <rect x="802" y="389" width="156" height="62" rx="5" fill="url(#unit)" stroke="#33496d" stroke-width="1.5"/>
    <rect x="802" y="389" width="9" height="62" rx="3" fill="#2a3f62"/>
    <rect x="949" y="389" width="9" height="62" rx="3" fill="#2a3f62"/>
    <circle cx="806.5" cy="399" r="2" fill="#0b1626"/><circle cx="806.5" cy="441" r="2" fill="#0b1626"/><circle cx="953.5" cy="399" r="2" fill="#0b1626"/><circle cx="953.5" cy="441" r="2" fill="#0b1626"/>
    <rect x="818" y="403" width="3.5" height="34" rx="1.7" fill="#0b1626"/><rect x="826" y="403" width="3.5" height="34" rx="1.7" fill="#0b1626"/><rect x="834" y="403" width="3.5" height="34" rx="1.7" fill="#0b1626"/><rect x="842" y="403" width="3.5" height="34" rx="1.7" fill="#0b1626"/><rect x="850" y="403" width="3.5" height="34" rx="1.7" fill="#0b1626"/><rect x="858" y="403" width="3.5" height="34" rx="1.7" fill="#0b1626"/>
    <rect x="872" y="401" width="30" height="17" rx="2" fill="#0b1626" stroke="#3a5073" stroke-width="1.2"/>
    <rect x="872" y="422" width="30" height="17" rx="2" fill="#0b1626" stroke="#3a5073" stroke-width="1.2"/>
    <rect x="876" y="408" width="15" height="3" rx="1.5" fill="#3a5073"/><rect x="876" y="429" width="15" height="3" rx="1.5" fill="#3a5073"/>
    <circle cx="897" cy="409.5" r="2" fill="#5b7090"/><circle cx="897" cy="430.5" r="2" fill="#5b7090"/>
    <circle cx="918" cy="409" r="4.5" fill="#4fa36a" opacity=".8"/><circle cx="918" cy="431" r="4.5" fill="#5b7090"/>
    <rect x="930" y="403" width="12" height="5" rx="1.5" fill="#33496d"/><rect x="930" y="412" width="12" height="5" rx="1.5" fill="#33496d"/><rect x="930" y="421" width="12" height="5" rx="1.5" fill="#4a6590"/><rect x="930" y="430" width="12" height="5" rx="1.5" fill="#4a6590"/>

    <rect x="802" y="461" width="156" height="62" rx="5" fill="url(#unit)" stroke="#33496d" stroke-width="1.5"/>
    <rect x="802" y="461" width="9" height="62" rx="3" fill="#2a3f62"/>
    <rect x="949" y="461" width="9" height="62" rx="3" fill="#2a3f62"/>
    <circle cx="806.5" cy="471" r="2" fill="#0b1626"/><circle cx="806.5" cy="513" r="2" fill="#0b1626"/><circle cx="953.5" cy="471" r="2" fill="#0b1626"/><circle cx="953.5" cy="513" r="2" fill="#0b1626"/>
    <rect x="818" y="475" width="3.5" height="34" rx="1.7" fill="#0b1626"/><rect x="826" y="475" width="3.5" height="34" rx="1.7" fill="#0b1626"/><rect x="834" y="475" width="3.5" height="34" rx="1.7" fill="#0b1626"/><rect x="842" y="475" width="3.5" height="34" rx="1.7" fill="#0b1626"/><rect x="850" y="475" width="3.5" height="34" rx="1.7" fill="#0b1626"/><rect x="858" y="475" width="3.5" height="34" rx="1.7" fill="#0b1626"/>
    <rect x="872" y="473" width="30" height="17" rx="2" fill="#0b1626" stroke="#3a5073" stroke-width="1.2"/>
    <rect x="872" y="494" width="30" height="17" rx="2" fill="#0b1626" stroke="#3a5073" stroke-width="1.2"/>
    <rect x="876" y="480" width="15" height="3" rx="1.5" fill="#3a5073"/><rect x="876" y="501" width="15" height="3" rx="1.5" fill="#3a5073"/>
    <circle cx="897" cy="481.5" r="2" fill="#5b7090"/><circle cx="897" cy="502.5" r="2" fill="#5b7090"/>
    <circle cx="918" cy="481" r="4.5" fill="#4fa36a" opacity=".8"/><circle cx="918" cy="503" r="4.5" fill="#5b7090"/>
    <rect x="930" y="475" width="12" height="5" rx="1.5" fill="#33496d"/><rect x="930" y="484" width="12" height="5" rx="1.5" fill="#33496d"/><rect x="930" y="493" width="12" height="5" rx="1.5" fill="#33496d"/><rect x="930" y="502" width="12" height="5" rx="1.5" fill="#4a6590"/>

    <rect x="802" y="533" width="156" height="62" rx="5" fill="url(#unit)" stroke="#33496d" stroke-width="1.5"/>
    <rect x="802" y="533" width="9" height="62" rx="3" fill="#2a3f62"/>
    <rect x="949" y="533" width="9" height="62" rx="3" fill="#2a3f62"/>
    <circle cx="806.5" cy="543" r="2" fill="#0b1626"/><circle cx="806.5" cy="585" r="2" fill="#0b1626"/><circle cx="953.5" cy="543" r="2" fill="#0b1626"/><circle cx="953.5" cy="585" r="2" fill="#0b1626"/>
    <rect x="818" y="547" width="3.5" height="34" rx="1.7" fill="#0b1626"/><rect x="826" y="547" width="3.5" height="34" rx="1.7" fill="#0b1626"/><rect x="834" y="547" width="3.5" height="34" rx="1.7" fill="#0b1626"/><rect x="842" y="547" width="3.5" height="34" rx="1.7" fill="#0b1626"/><rect x="850" y="547" width="3.5" height="34" rx="1.7" fill="#0b1626"/><rect x="858" y="547" width="3.5" height="34" rx="1.7" fill="#0b1626"/>
    <rect x="872" y="545" width="30" height="17" rx="2" fill="#0b1626" stroke="#3a5073" stroke-width="1.2"/>
    <rect x="872" y="566" width="30" height="17" rx="2" fill="#0b1626" stroke="#3a5073" stroke-width="1.2"/>
    <rect x="876" y="552" width="15" height="3" rx="1.5" fill="#3a5073"/><rect x="876" y="573" width="15" height="3" rx="1.5" fill="#3a5073"/>
    <circle cx="897" cy="553.5" r="2" fill="#5b7090"/><circle cx="897" cy="574.5" r="2" fill="#5b7090"/>
    <circle cx="918" cy="553" r="4.5" fill="#4fa36a" opacity=".8"/><circle cx="918" cy="575" r="4.5" fill="#5b7090"/>
    <rect x="930" y="547" width="12" height="5" rx="1.5" fill="#33496d"/><rect x="930" y="556" width="12" height="5" rx="1.5" fill="#33496d"/><rect x="930" y="565" width="12" height="5" rx="1.5" fill="#33496d"/><rect x="930" y="574" width="12" height="5" rx="1.5" fill="#33496d"/>

    <rect x="802" y="615" width="30" height="10" rx="3" fill="#2b3f5e"/>
    <rect x="928" y="615" width="30" height="10" rx="3" fill="#2b3f5e"/>
  </g>

  <!-- route 2: server to blog -->
  <path d="M994 420C1040 420 1050 300 1092 300" fill="none" stroke="#18293f" stroke-width="12" stroke-linecap="round"/>
  <path d="M994 420C1040 420 1050 300 1092 300" fill="none" stroke="#f07c2a" stroke-width="6" stroke-dasharray="1 16" stroke-linecap="round"/>
  <rect x="1029" y="352" width="16" height="16" rx="3" fill="url(#packet)" transform="rotate(20 1037 360)"/>
  <rect x="1011" y="398" width="10" height="10" rx="2.5" fill="url(#packet)" opacity=".7" transform="rotate(30 1016 403)"/>
  <path d="M1084 292L1098 300L1084 308Z" fill="#f07c2a"/>

  <!-- blog window -->
  <rect x="1100" y="170" width="390" height="560" rx="18" fill="url(#win)" stroke="#2a3d5c" stroke-width="2"/>
  <path d="M1100 214V188A18 18 0 0 1 1118 170H1472A18 18 0 0 1 1490 188V214Z" fill="#1c2c47"/>
  <circle cx="1124" cy="192" r="6" fill="#c9574f" opacity=".75"/>
  <circle cx="1144" cy="192" r="6" fill="#d9a441" opacity=".75"/>
  <circle cx="1164" cy="192" r="6" fill="#4fa36a" opacity=".75"/>
  <path d="M1184 214V196A8 8 0 0 1 1192 188H1300A8 8 0 0 1 1308 196V214Z" fill="#172740"/>
  <circle cx="1200" cy="201" r="5" fill="#f07c2a"/>
  <rect x="1212" y="198" width="70" height="6" rx="3" fill="#3a5073"/>
  <rect x="1112" y="222" width="366" height="28" rx="14" fill="#0f1a2c"/>
  <rect x="1126" y="235" width="10" height="8" rx="2" fill="#8a9bb4"/>
  <path d="M1128 235V232a3 3 0 0 1 6 0V235" fill="none" stroke="#8a9bb4" stroke-width="1.6"/>
  <rect x="1146" y="233" width="150" height="6" rx="3" fill="#3a5073"/>
  <path d="M1467 236A5.5 5.5 0 1 1 1464 231.5" fill="none" stroke="#8a9bb4" stroke-width="1.6" stroke-linecap="round"/>
  <path d="M1462 228.5L1466.5 231L1462 234Z" fill="#8a9bb4"/>

  <circle cx="1130" cy="272" r="8" fill="#c9d6e8"/>
  <rect x="1146" y="268" width="60" height="8" rx="4" fill="#8a9bb4"/>
  <rect x="1372" y="269" width="24" height="6" rx="3" fill="#5b7090"/>
  <rect x="1404" y="269" width="24" height="6" rx="3" fill="#5b7090"/>
  <rect x="1436" y="269" width="24" height="6" rx="3" fill="#f07c2a"/>

  <!-- card 1: new post with cover -->
  <rect x="1122" y="292" width="346" height="176" rx="10" fill="url(#card)" stroke="#2c4368" stroke-width="1.2"/>
  <rect x="1122" y="292" width="4" height="176" fill="#f07c2a"/>
  <rect x="1144" y="306" width="152" height="86" rx="6" fill="#0a1322"/>
  <g clip-path="url(#th1)">
    <path d="M1144 320H1296M1144 334H1296M1144 348H1296M1144 362H1296M1144 376H1296M1158 306V392M1172 306V392M1186 306V392M1200 306V392M1214 306V392M1228 306V392M1242 306V392M1256 306V392M1270 306V392M1284 306V392" stroke="#152640" stroke-width="1"/>
    <circle cx="1206" cy="338" r="19" fill="url(#sun)"/>
    <path d="M1156 372C1168 354 1180 354 1192 372" fill="none" stroke="#f07c2a" stroke-width="5" stroke-linecap="round"/>
    <path d="M1192 372C1204 390 1216 390 1228 372" fill="none" stroke="#5b7090" stroke-width="2" stroke-dasharray="2 4" stroke-linecap="round"/>
    <path d="M1244 392L1262 360L1286 392Z" fill="#1c3252"/>
  </g>
  <rect x="1312" y="310" width="136" height="11" rx="5" fill="#e2e9f3"/>
  <rect x="1312" y="330" width="98" height="11" rx="5" fill="#e2e9f3"/>
  <rect x="1312" y="358" width="54" height="13" rx="6.5" fill="#f07c2a"/>
  <circle cx="1386" cy="364.5" r="5" fill="none" stroke="#8a9bb4" stroke-width="1.5"/>
  <path d="M1386 361.5V364.5H1388.5" fill="none" stroke="#8a9bb4" stroke-width="1.5" stroke-linecap="round"/>
  <rect x="1396" y="361.5" width="30" height="6" rx="3" fill="#5b7090"/>
  <rect x="1144" y="408" width="302" height="8" rx="4" fill="#5b7090"/>
  <rect x="1144" y="424" width="262" height="8" rx="4" fill="#5b7090"/>
  <rect x="1144" y="440" width="200" height="8" rx="4" fill="#5b7090"/>

  <!-- card 2: older post, accent gradient fallback -->
  <rect x="1122" y="480" width="346" height="112" rx="10" fill="#1a2a44" stroke="#233858" stroke-width="1.2"/>
  <rect x="1122" y="480" width="4" height="112" fill="#3b6fd8"/>
  <rect x="1144" y="493" width="152" height="86" rx="6" fill="url(#fbBlue)"/>
  <rect x="1312" y="500" width="130" height="10" rx="5" fill="#8a9bb4"/>
  <rect x="1312" y="520" width="92" height="10" rx="5" fill="#8a9bb4"/>
  <rect x="1312" y="548" width="50" height="12" rx="6" fill="#3b6fd8"/>
  <circle cx="1382" cy="554" r="5" fill="none" stroke="#5b7090" stroke-width="1.5"/>
  <path d="M1382 551V554H1384.5" fill="none" stroke="#5b7090" stroke-width="1.5" stroke-linecap="round"/>
  <rect x="1392" y="551" width="26" height="6" rx="3" fill="#3a5073"/>

  <!-- card 3: older post, accent gradient fallback -->
  <rect x="1122" y="604" width="346" height="112" rx="10" fill="#1a2a44" stroke="#233858" stroke-width="1.2"/>
  <rect x="1122" y="604" width="4" height="112" fill="#2a9d8f"/>
  <rect x="1144" y="617" width="152" height="86" rx="6" fill="url(#fbTeal)"/>
  <rect x="1312" y="624" width="120" height="10" rx="5" fill="#8a9bb4"/>
  <rect x="1312" y="644" width="104" height="10" rx="5" fill="#8a9bb4"/>
  <rect x="1312" y="672" width="50" height="12" rx="6" fill="#2a9d8f"/>
  <circle cx="1382" cy="678" r="5" fill="none" stroke="#5b7090" stroke-width="1.5"/>
  <path d="M1382 675V678H1384.5" fill="none" stroke="#5b7090" stroke-width="1.5" stroke-linecap="round"/>
  <rect x="1392" y="675" width="26" height="6" rx="3" fill="#3a5073"/>

  <!-- scrollbar -->
  <rect x="1479" y="262" width="4" height="456" rx="2" fill="#1c2c47"/>
  <rect x="1479" y="266" width="4" height="96" rx="2" fill="#3a5073"/>
</svg>